<?xml version="1.0" encoding="UTF-8"?>
<svg version="1.1" xmlns="http://www.w3.org/2000/svg" width="736" height="552">
<path d="M0 0 C0.78793442 -0.00189835 1.57586884 -0.00379669 2.38768005 -0.00575256 C4.9825143 -0.00944448 7.57706574 0.00122954 10.171875 0.01245117 C11.99064094 0.01364503 13.80940751 0.0140957 15.62817383 0.01383972 C19.44112002 0.01540239 23.25397205 0.0236695 27.06689453 0.03710938 C31.91706915 0.05400189 36.7671395 0.05792617 41.61734009 0.05716419 C45.37694262 0.05743844 49.13652306 0.06296169 52.89611816 0.07016563 C54.68200514 0.07331551 56.46789458 0.07531094 58.25378418 0.07605934 C85.27747772 0.09976258 108.09822189 2.83239784 128.28125 22.54760742 C142.98630259 37.99284723 149.53094437 58.25700591 149.16796875 79.35229492 C147.84763601 100.22612684 139.43201961 118.8446318 124.234375 133.25073242 C109.53207705 145.91656343 93.22917878 151.37944566 73.9140625 151.41088867 C73.18494659 151.41421707 72.45583069 151.41754547 71.70462036 151.42097473 C70.17694726 151.42599721 68.64926338 151.42838452 67.12158203 151.42822266 C64.79571541 151.43042102 62.47031503 151.44865834 60.14453125 151.4675293 C58.65104327 151.47046194 57.15755306 151.4724476 55.6640625 151.47338867 C54.97641815 151.48057419 54.2887738 151.4877597 53.58029175 151.49516296 C45.94587466 151.45927182 41.30077477 149.37732425 35.921875 144.24291992 C33.33935521 140.00583661 33.39142728 136.07588802 33.921875 131.24291992 C35.88621539 125.56815879 39.54988162 121.92891661 44.921875 119.24291992 C51.48806293 118.45956105 58.10337195 118.20020903 64.7109375 118.06713867 C66.40089844 118.03136719 66.40089844 118.03136719 68.125 117.99487305 C70.41386981 117.95176077 72.70299446 117.92058897 74.9921875 117.90112305 C85.088051 117.65219981 93.79791133 115.47758972 101.921875 109.24291992 C103.46875 108.06729492 103.46875 108.06729492 105.046875 106.86791992 C112.47220993 100.08826629 116.20540485 90.74561875 116.828125 80.81323242 C116.8590625 79.9650293 116.89 79.11682617 116.921875 78.24291992 C116.9734375 77.3328418 117.025 76.42276367 117.078125 75.48510742 C117.3851292 66.30056501 114.83463869 58.03969469 109.921875 50.24291992 C109.261875 49.91291992 108.601875 49.58291992 107.921875 49.24291992 C107.6125 48.60354492 107.303125 47.96416992 106.984375 47.30541992 C105.96841578 44.92320499 105.96841578 44.92320499 102.921875 43.24291992 C102.921875 42.58291992 102.921875 41.92291992 102.921875 41.24291992 C102.261875 40.99541992 101.601875 40.74791992 100.921875 40.49291992 C97.81333927 39.1976967 94.86666966 37.70900029 91.88671875 36.14526367 C88.55564538 34.61548644 85.49855825 34.11812873 81.85015869 34.11834717 C81.04846252 34.11578415 80.24676636 34.11322113 79.42077637 34.11058044 C78.55005493 34.11268021 77.6793335 34.11477997 76.78222656 34.11694336 C75.85815002 34.11507523 74.93407349 34.11320709 73.98199463 34.11128235 C71.97622201 34.10728103 69.97044485 34.10520376 67.96466827 34.10482025 C63.69591942 34.10140038 59.42732228 34.08003192 55.15862656 34.05958939 C47.21282705 34.02159469 39.26718982 33.99030373 31.32128906 33.99243164 C25.79216278 33.9932197 20.26359255 33.96981444 14.73461151 33.93054962 C12.63118745 33.9201027 10.52769911 33.91855591 8.424263 33.92620087 C5.47526657 33.93584889 2.5279468 33.91459029 -0.42089844 33.88647461 C-1.71483521 33.90176964 -1.71483521 33.90176964 -3.03491211 33.91737366 C-9.15429195 33.81318061 -13.35331208 32.18172685 -18.078125 28.24291992 C-20.015625 25.55541992 -20.015625 25.55541992 -21.078125 23.24291992 C-21.408125 22.58291992 -21.738125 21.92291992 -22.078125 21.24291992 C-22.49013091 16.3659197 -22.68998637 11.51687489 -20.078125 7.24291992 C-13.92532927 1.22996046 -8.39542106 -0.06440304 0 0 Z " fill="#3896E0" transform="translate(304.078125,178.757080078125)"/>
<path d="M0 0 C1.25566269 -0.00570007 2.51132538 -0.01140015 3.80503845 -0.01727295 C6.44826876 -0.02667986 9.09138672 -0.0335999 11.73461914 -0.03710938 C15.10236168 -0.0426084 18.46970292 -0.06669871 21.83731937 -0.09508133 C25.07901516 -0.11828789 28.32073282 -0.12016032 31.5625 -0.125 C33.36123314 -0.1435202 33.36123314 -0.1435202 35.19630432 -0.16241455 C41.76699628 -0.14498775 46.73670885 0.42003385 52.71484375 3.203125 C52.71484375 3.863125 52.71484375 4.523125 52.71484375 5.203125 C53.37484375 5.203125 54.03484375 5.203125 54.71484375 5.203125 C58.01804541 10.15792749 59.86211874 14.11909097 58.71484375 20.203125 C56.92139914 25.46837148 54.51408383 29.20359995 49.71484375 32.203125 C46.29523172 33.34538943 43.05207117 33.32760856 39.46508789 33.32910156 C37.56775658 33.33481171 37.56775658 33.33481171 35.63209534 33.34063721 C34.95893343 33.34083107 34.28577152 33.34102493 33.59221077 33.34122467 C30.75112992 33.3446539 27.91027514 33.36602996 25.06927395 33.38645554 C19.78483924 33.42441478 14.50065129 33.45573817 9.21606445 33.45361328 C5.53473298 33.45282557 1.85423742 33.47620857 -1.82687569 33.5154953 C-3.22662153 33.52594367 -4.62646398 33.52748777 -6.02622795 33.51984406 C-7.98617496 33.51020669 -9.94619937 33.53419964 -11.90600586 33.55957031 C-13.01979111 33.56321594 -14.13357635 33.56686157 -15.28111267 33.57061768 C-19.23123147 34.40232301 -20.73265678 36.15402869 -23.28515625 39.203125 C-24.79175365 42.21631981 -24.42940643 45.32611668 -24.42700195 48.63110352 C-24.43047638 49.39722458 -24.43395081 50.16334564 -24.43753052 50.9526825 C-24.44489257 52.62017145 -24.45023555 54.28767024 -24.45382118 55.95517159 C-24.46098638 58.60007276 -24.4766559 61.24478838 -24.49516296 63.88963318 C-24.54761132 71.4111772 -24.59555226 78.932623 -24.61108398 86.4543457 C-24.62120482 91.05396094 -24.65063891 95.65311416 -24.69240379 100.25254631 C-24.70466697 102.0006656 -24.70984366 103.74885032 -24.70760536 105.49701118 C-24.68851047 125.28946917 -24.68851047 125.28946917 -31.09765625 132.140625 C-36.65796543 134.8413466 -41.25390446 135.84801185 -47.28515625 134.203125 C-52.89455369 130.68350308 -55.50577837 126.56283846 -57.28515625 120.203125 C-57.86806953 114.48048229 -57.84925388 108.79029207 -57.81640625 103.04296875 C-57.81910744 101.36780066 -57.82299505 99.6926341 -57.82800293 98.01747131 C-57.83387993 94.51320408 -57.8254012 91.00934631 -57.80664062 87.50512695 C-57.78397592 83.05960735 -57.79690557 78.6150607 -57.82093048 74.1695776 C-57.83554402 70.70922325 -57.83071019 67.2490906 -57.82041931 63.78872871 C-57.81778821 62.15241946 -57.8208912 60.51608872 -57.83033752 58.87980461 C-57.89464576 44.59950123 -56.91955218 28.65429273 -47.28515625 17.203125 C-46.62515625 17.203125 -45.96515625 17.203125 -45.28515625 17.203125 C-45.03507812 16.61402344 -44.785 16.02492187 -44.52734375 15.41796875 C-40.25025294 7.79183514 -30.29807539 3.57950543 -22.28515625 1.203125 C-14.84783907 0.1527864 -7.50364426 0.02663833 0 0 Z " fill="#4BA5E5" transform="translate(338.28515625,237.796875)"/>
<path d="M0 0 C1.02530403 0.97403883 2.01769502 1.9826127 3 3 C3.70125 3.680625 4.4025 4.36125 5.125 5.0625 C7.84300471 9.32070739 7.85563484 13.02254032 8 18 C8.02046387 18.64598145 8.04092773 19.29196289 8.06201172 19.95751953 C8.12194402 22.09675585 8.15938513 24.23511914 8.1875 26.375 C8.20731934 27.4100769 8.20731934 27.4100769 8.22753906 28.46606445 C8.23309908 32.25197578 7.80293552 34.70673472 6 38 C6.103125 39.299375 6.20625 40.59875 6.3125 41.9375 C6.39453125 44.046875 6.39453125 44.046875 6 46 C4.28760238 47.60456402 2.61528462 48.62825651 0.53125 49.69921875 C-1.30945578 50.9526078 -1.30945578 50.9526078 -1.21875 53.64453125 C-1.11046875 54.81048828 -1.11046875 54.81048828 -1 56 C-1.62648438 56.32613281 -2.25296875 56.65226562 -2.8984375 56.98828125 C-3.71570313 57.42527344 -4.53296875 57.86226563 -5.375 58.3125 C-6.18710937 58.74175781 -6.99921875 59.17101562 -7.8359375 59.61328125 C-10.26834043 60.96778724 -10.26834043 60.96778724 -12 64 C-14.86328125 64.6953125 -14.86328125 64.6953125 -18.3125 65.125 C-22.77423658 65.66922107 -22.77423658 65.66922107 -27.18334961 66.50927734 C-30.89343492 67.15565608 -34.57308966 67.21404445 -38.328125 67.28125 C-39.11773621 67.29965942 -39.90734741 67.31806885 -40.72088623 67.33703613 C-44.08657737 67.41548814 -47.45245244 67.48377612 -50.81835938 67.55224609 C-53.28005357 67.60380733 -55.74156757 67.66108042 -58.203125 67.71875 C-58.9697345 67.73232544 -59.73634399 67.74590088 -60.52618408 67.7598877 C-64.05888679 67.52552798 -64.05888679 67.52552798 -67 69 C-65.35 69 -63.7 69 -62 69 C-64.46153846 72.81538462 -64.46153846 72.81538462 -67.1875 73.75 C-67.785625 73.8325 -68.38375 73.915 -69 74 C-69.12229261 79.47956864 -69.12229261 79.47956864 -68.375 84.875 C-68.25125 85.57625 -68.1275 86.2775 -68 87 C-68.99 87.99 -68.99 87.99 -70 89 C-70 89.99 -70 90.98 -70 92 C-69.01 92 -68.02 92 -67 92 C-66.01 92.66 -65.02 93.32 -64 94 C-60.80009946 94.36999337 -60.80009946 94.36999337 -57.14453125 94.4140625 C-56.48289474 94.43342865 -55.82125824 94.4527948 -55.13957214 94.4727478 C-53.03067836 94.53242687 -50.92172963 94.57888087 -48.8125 94.625 C-47.38083585 94.66319066 -45.94919441 94.70224303 -44.51757812 94.7421875 C-41.01192688 94.83811773 -37.50610555 94.92219197 -34 95 C-33.67 94.34 -33.34 93.68 -33 93 C-30.69 93 -28.38 93 -26 93 C-25.79375 92.360625 -25.5875 91.72125 -25.375 91.0625 C-24 89 -24 89 -20.875 88.25 C-19.92625 88.1675 -18.9775 88.085 -18 88 C-18 88.66 -18 89.32 -18 90 C-16.68 90 -15.36 90 -14 90 C-14 89.34 -14 88.68 -14 88 C-12.71029297 88.07347656 -12.71029297 88.07347656 -11.39453125 88.1484375 C-7.64180773 87.98433682 -5.12485297 87.10610103 -1.6875 85.625 C-0.63949219 85.18414062 0.40851563 84.74328125 1.48828125 84.2890625 C4.12113338 83.25069277 4.12113338 83.25069277 5 81 C7.5625 80.375 7.5625 80.375 10 80 C-0.16866107 91.52448255 -16.11722524 96.57391616 -31 98 C-33.67834903 98.09889647 -36.33030271 98.16361004 -39.0078125 98.16796875 C-39.73692841 98.17129715 -40.46604431 98.17462555 -41.21725464 98.17805481 C-42.74492774 98.18307729 -44.27261162 98.1854646 -45.80029297 98.18530273 C-48.12615959 98.1875011 -50.45155997 98.20573842 -52.77734375 98.22460938 C-54.27083173 98.22754202 -55.76432194 98.22952768 -57.2578125 98.23046875 C-57.94545685 98.23765427 -58.6331012 98.24483978 -59.34158325 98.25224304 C-66.97600034 98.21635189 -71.62110023 96.13440433 -77 91 C-79.58251979 86.76291669 -79.53044772 82.8329681 -79 78 C-77.03565961 72.32523887 -73.37199338 68.68599669 -68 66 C-61.43381207 65.21664113 -54.81850305 64.95728911 -48.2109375 64.82421875 C-46.52097656 64.78844727 -46.52097656 64.78844727 -44.796875 64.75195312 C-42.50800519 64.70884085 -40.21888054 64.67766905 -37.9296875 64.65820312 C-27.833824 64.40927989 -19.12396367 62.2346698 -11 56 C-9.96875 55.21625 -8.9375 54.4325 -7.875 53.625 C-0.44966507 46.84534637 3.28352985 37.50269883 3.90625 27.5703125 C3.9371875 26.72210938 3.968125 25.87390625 4 25 C4.0515625 24.08992188 4.103125 23.17984375 4.15625 22.2421875 C4.34343018 16.6423803 3.72738411 12.18556816 1.734375 6.94921875 C0.87569322 4.67005807 0.38735485 2.40160004 0 0 Z " fill="#49A6E7" transform="translate(417,232)"/>
<path d="M0 0 C0.78793442 -0.00189835 1.57586884 -0.00379669 2.38768005 -0.00575256 C4.9825143 -0.00944448 7.57706574 0.00122954 10.171875 0.01245117 C11.99064094 0.01364503 13.80940751 0.0140957 15.62817383 0.01383972 C19.44112002 0.01540239 23.25397205 0.0236695 27.06689453 0.03710938 C31.91706915 0.05400189 36.7671395 0.05792617 41.61734009 0.05716419 C45.37694262 0.05743844 49.13652306 0.06296169 52.89611816 0.07016563 C54.68200514 0.07331551 56.46789458 0.07531094 58.25378418 0.07605934 C75.9584143 0.09158857 92.07967056 0.21888031 108.296875 8.11791992 C108.97540527 8.44542236 109.65393555 8.7729248 110.35302734 9.11035156 C114.6517547 11.29492447 117.68920173 13.66076846 120.921875 17.24291992 C117.41179926 15.93829 114.38760211 14.37973094 111.234375 12.36791992 C100.77587111 5.99646881 90.27717784 2.94572143 78.08105469 2.93652344 C77.13046173 2.92819992 76.17986877 2.9198764 75.20046997 2.91130066 C72.08152088 2.88734772 68.96278107 2.87845019 65.84375 2.87182617 C63.66758158 2.86285447 61.49141377 2.85373252 59.31524658 2.84446716 C54.76613874 2.82801884 50.21710419 2.8202836 45.66796875 2.81738281 C39.83460025 2.81197796 34.00191728 2.77419331 28.16874313 2.72863865 C23.68037371 2.69893976 19.19217163 2.69166095 14.70371246 2.69065666 C12.55226727 2.6864465 10.40082193 2.67398051 8.24947357 2.65313911 C5.24750034 2.62635084 2.24714797 2.63101085 -0.75488281 2.64355469 C-1.64430573 2.6287204 -2.53372864 2.61388611 -3.45010376 2.59860229 C-5.77041923 2.62627982 -7.82419923 2.69017727 -10.078125 3.24291992 C-12.56024069 5.62926182 -12.56024069 5.62926182 -14.078125 8.24291992 C-14.738125 8.24291992 -15.398125 8.24291992 -16.078125 8.24291992 C-17.08072007 11.25070513 -17.38127142 13.78112639 -17.640625 16.93041992 C-17.72441406 17.92428711 -17.80820312 18.9181543 -17.89453125 19.94213867 C-17.95511719 20.70139648 -18.01570313 21.4606543 -18.078125 22.24291992 C-17.170625 22.46979492 -16.263125 22.69666992 -15.328125 22.93041992 C-12.078125 24.24291992 -12.078125 24.24291992 -10.45593262 26.78671265 C-7.8526703 29.47580818 -7.46023082 29.61783517 -3.94152832 29.86196899 C-2.22223979 29.88504762 -0.50245188 29.8806093 1.21679688 29.85473633 C2.62717979 29.86323357 2.62717979 29.86323357 4.0660553 29.87190247 C7.17465019 29.88540921 10.28208094 29.86445643 13.390625 29.84448242 C15.55009766 29.8499808 17.70956511 29.85810377 19.86901855 29.8687439 C25.55576466 29.89165488 31.24212675 29.8873988 36.92889404 29.87493896 C46.03151078 29.85664752 55.13390262 29.86653021 64.23646545 29.9007988 C67.4185175 29.90691589 70.60009009 29.89362602 73.78210449 29.8788147 C75.73038864 29.88176215 77.67867189 29.88541651 79.62695312 29.88989258 C80.95648766 29.87595711 80.95648766 29.87595711 82.31288147 29.86174011 C88.34208315 29.90099685 88.34208315 29.90099685 91.50280762 31.76498413 C91.97109985 32.25270294 92.43939209 32.74042175 92.921875 33.24291992 C90.96184158 35.20295334 87.9585983 34.36555976 85.34980774 34.37052917 C84.40284531 34.36700943 83.45588287 34.36348969 82.48022461 34.35986328 C81.48831116 34.35989349 80.49639771 34.35992371 79.47442627 34.35995483 C76.17430541 34.35755211 72.87431169 34.34638669 69.57421875 34.33276367 C68.44876711 34.32830294 67.32331547 34.3238422 66.16375923 34.31924629 C60.20229616 34.2935247 54.24093142 34.25963025 48.27954102 34.22070312 C43.34519436 34.19015493 38.41124594 34.17642598 33.47680664 34.17773438 C27.52310358 34.17925888 21.57020153 34.15166989 15.61670113 34.10330391 C13.3486159 34.08967194 11.08044596 34.08616528 8.81233025 34.09306145 C5.63043423 34.10052432 2.45091052 34.07050666 -0.73071289 34.03173828 C-1.66350571 34.04238815 -2.59629852 34.05303802 -3.55735779 34.06401062 C-10.27136369 33.92526247 -14.29190015 31.96223302 -19.078125 27.24291992 C-22.49202784 22.44211905 -22.65903103 17.93579905 -22.078125 12.24291992 C-20.95557166 7.30368524 -18.13648578 5.1305997 -14.078125 2.24291992 C-9.36442776 0.27000284 -5.04213507 -0.03867928 0 0 Z " fill="#4694D3" transform="translate(304.078125,178.757080078125)"/>
<path d="M0 0 C0.33 0 0.66 0 1 0 C0.99555878 1.0685321 0.99111755 2.13706421 0.98654175 3.23797607 C0.94601739 13.30255993 0.91602603 23.36712725 0.89637566 33.43177414 C0.88593364 38.60624336 0.87176675 43.78064678 0.84912109 48.95507812 C0.82740771 53.94767149 0.81543452 58.94020151 0.81024551 63.93283844 C0.80654706 65.83864591 0.79932502 67.74444987 0.78853989 69.65023041 C0.77404502 72.31735252 0.77202122 74.98421209 0.77294922 77.65136719 C0.76575867 78.4411496 0.75856812 79.23093201 0.75115967 80.04464722 C0.71799642 85.3628637 0.71799642 85.3628637 3 90 C3.99 90.33 4.98 90.66 6 91 C6 91.99 6 92.98 6 94 C13.04811372 95.1165343 13.04811372 95.1165343 20 94 C22.46278801 91.53721199 22.99771255 89.29323018 24 86 C24.66 86 25.32 86 26 86 C26.02061493 85.04644119 26.04122986 84.09288239 26.06246948 83.11042786 C26.25805714 74.12017912 26.46353594 65.13020354 26.67867851 56.14040089 C26.78896579 51.5187446 26.8957775 46.89706263 26.99462891 42.27514648 C27.09016984 37.81401154 27.19486307 33.35317641 27.3058815 28.89240074 C27.34661407 27.19125532 27.3840589 25.49002786 27.41814804 23.78873634 C27.46649187 21.40418523 27.52656187 19.02019467 27.58935547 16.63598633 C27.60086639 15.93395584 27.61237732 15.23192535 27.62423706 14.50862122 C27.74122539 10.59601161 28.2978754 7.53366655 30 4 C31.50853105 7.01706209 31.11551878 10.12110424 31.08520508 13.42797852 C31.08043152 14.57716011 31.08043152 14.57716011 31.07556152 15.7495575 C31.0629356 18.29275224 31.04205362 20.83578081 31.01953125 23.37890625 C31.01257421 24.24844374 31.00561718 25.11798122 30.99844933 26.01386833 C30.96100677 30.62138071 30.91698489 35.22877902 30.86791992 39.83618164 C30.8187283 44.58155377 30.79242605 49.32675888 30.77148914 54.07232761 C30.75103997 57.73153241 30.71313113 61.39041239 30.6706295 65.04942131 C30.65336127 66.79752342 30.64261097 68.54570321 30.63868141 70.29388618 C30.58114055 90.10291872 30.58114055 90.10291872 24.1875 96.9375 C18.62719082 99.6382216 14.03125179 100.64488685 8 99 C2.39338478 95.48212378 -0.23935598 91.36497829 -2 85 C-2.56243715 79.18216265 -2.51548979 73.39841268 -2.4609375 67.55859375 C-2.4585487 65.86426433 -2.45764868 64.16993222 -2.4581604 62.4756012 C-2.45504521 58.93774649 -2.43857838 55.4003007 -2.41162109 51.86254883 C-2.37761726 47.34472158 -2.36999415 42.82734177 -2.37151146 38.30940151 C-2.37096574 34.81508676 -2.35996665 31.32086833 -2.34550858 27.82658577 C-2.33917887 26.16134429 -2.33521072 24.496092 -2.33372116 22.83083916 C-2.32934851 20.49828659 -2.31176475 18.16619283 -2.29052734 15.83374023 C-2.29143372 15.15663498 -2.29234009 14.47952972 -2.29327393 13.78190613 C-2.2286485 8.88853286 -1.30888808 4.67968273 0 0 Z " fill="#A3D1EE" transform="translate(283,273)"/>
<path d="M0 0 C1.02530403 0.97403883 2.01769502 1.9826127 3 3 C3.70125 3.680625 4.4025 4.36125 5.125 5.0625 C7.84300471 9.32070739 7.85563484 13.02254032 8 18 C8.02046387 18.64598145 8.04092773 19.29196289 8.06201172 19.95751953 C8.12194402 22.09675585 8.15938513 24.23511914 8.1875 26.375 C8.20731934 27.4100769 8.20731934 27.4100769 8.22753906 28.46606445 C8.23309908 32.25197578 7.80293552 34.70673472 6 38 C6.103125 39.299375 6.20625 40.59875 6.3125 41.9375 C6.39453125 44.046875 6.39453125 44.046875 6 46 C4.28760238 47.60456402 2.61528462 48.62825651 0.53125 49.69921875 C-1.30945578 50.9526078 -1.30945578 50.9526078 -1.21875 53.64453125 C-1.11046875 54.81048828 -1.11046875 54.81048828 -1 56 C-1.62648438 56.32613281 -2.25296875 56.65226562 -2.8984375 56.98828125 C-3.71570313 57.42527344 -4.53296875 57.86226563 -5.375 58.3125 C-6.18710937 58.74175781 -6.99921875 59.17101562 -7.8359375 59.61328125 C-10.26834043 60.96778724 -10.26834043 60.96778724 -12 64 C-14.86328125 64.6953125 -14.86328125 64.6953125 -18.3125 65.125 C-22.77662204 65.66948452 -22.77662204 65.66948452 -27.18774414 66.51147461 C-30.87510269 67.15201671 -34.52644252 67.19431565 -38.2578125 67.24609375 C-39.86849555 67.27900596 -41.4791725 67.31221801 -43.08984375 67.34570312 C-45.61568369 67.39324429 -48.14149437 67.437755 -50.66748047 67.47680664 C-53.1145024 67.51645856 -55.56105085 67.56798538 -58.0078125 67.62109375 C-58.76409943 67.6295079 -59.52038635 67.63792206 -60.29959106 67.64659119 C-64.05135952 67.7352319 -65.8018107 67.8678738 -69 70 C-71.1875 69.625 -71.1875 69.625 -73 69 C-69.25335823 66.43186926 -66.5595108 65.57527611 -62.0390625 65.33203125 C-60.89469727 65.26709473 -59.75033203 65.2021582 -58.57128906 65.13525391 C-51.69346621 64.87477306 -44.81221275 64.716728 -37.9296875 64.65820312 C-27.833824 64.40927989 -19.12396367 62.2346698 -11 56 C-9.96875 55.21625 -8.9375 54.4325 -7.875 53.625 C-0.44966507 46.84534637 3.28352985 37.50269883 3.90625 27.5703125 C3.9371875 26.72210938 3.968125 25.87390625 4 25 C4.0515625 24.08992188 4.103125 23.17984375 4.15625 22.2421875 C4.34343018 16.6423803 3.72738411 12.18556816 1.734375 6.94921875 C0.87569322 4.67005807 0.38735485 2.40160004 0 0 Z " fill="#53A1D9" transform="translate(417,232)"/>
<path d="M0 0 C0.78793442 -0.00189835 1.57586884 -0.00379669 2.38768005 -0.00575256 C4.9825143 -0.00944448 7.57706574 0.00122954 10.171875 0.01245117 C11.99064094 0.01364503 13.80940751 0.0140957 15.62817383 0.01383972 C19.44112002 0.01540239 23.25397205 0.0236695 27.06689453 0.03710938 C31.91706915 0.05400189 36.7671395 0.05792617 41.61734009 0.05716419 C45.37694262 0.05743844 49.13652306 0.06296169 52.89611816 0.07016563 C54.68200514 0.07331551 56.46789458 0.07531094 58.25378418 0.07605934 C75.9584143 0.09158857 92.07967056 0.21888031 108.296875 8.11791992 C108.97540527 8.44542236 109.65393555 8.7729248 110.35302734 9.11035156 C114.6517547 11.29492447 117.68920173 13.66076846 120.921875 17.24291992 C117.41179926 15.93829 114.38760211 14.37973094 111.234375 12.36791992 C100.78538998 6.00226783 90.30114135 2.93387755 78.11279297 2.96826172 C77.1654126 2.96315079 76.21803223 2.95803986 75.24194336 2.95277405 C72.13258424 2.93895383 69.02344854 2.9398285 65.9140625 2.94213867 C63.74268512 2.93824883 61.5713085 2.93391357 59.39993286 2.92915344 C54.85920743 2.92170846 50.31855978 2.92197095 45.77783203 2.92724609 C39.9627667 2.93305179 34.14801874 2.91607469 28.33300591 2.89290142 C23.8531407 2.87816652 19.37335209 2.87729183 14.89346695 2.88041115 C12.74928278 2.87989826 10.60509428 2.87466657 8.46093369 2.86459923 C5.46446826 2.85225108 2.46862359 2.85901596 -0.52783203 2.87060547 C-1.85118057 2.85913986 -1.85118057 2.85913986 -3.20126343 2.84744263 C-8.24740417 2.89054057 -11.6901358 3.47165863 -16.078125 6.24291992 C-18.91320795 9.30541594 -19.9741623 12.60759231 -20.640625 16.68041992 C-19.89573865 21.39803344 -17.77671187 24.39411569 -15.078125 28.24291992 C-14.748125 28.90291992 -14.418125 29.56291992 -14.078125 30.24291992 C-18.63540342 28.51429707 -19.98647357 25.42622278 -22.078125 21.24291992 C-22.49013091 16.3659197 -22.68998637 11.51687489 -20.078125 7.24291992 C-13.92532927 1.22996046 -8.39542106 -0.06440304 0 0 Z " fill="#CFE6F6" transform="translate(304.078125,178.757080078125)"/>
<path d="M0 0 C12.57813075 -0.04630721 25.15624127 -0.08186102 37.73443985 -0.10362434 C43.57478086 -0.11406877 49.41506361 -0.12824008 55.25537109 -0.15087891 C60.88986536 -0.17258366 66.52430353 -0.18456366 72.15883636 -0.18975449 C74.31025831 -0.19345449 76.46167714 -0.20067951 78.61307526 -0.21146011 C81.62265192 -0.22594345 84.63199575 -0.22797925 87.64160156 -0.22705078 C88.5342421 -0.23424133 89.42688263 -0.24143188 90.34657288 -0.24884033 C91.16824448 -0.246091 91.98991608 -0.24334167 92.83648682 -0.24050903 C93.548111 -0.24235262 94.25973518 -0.24419621 94.99292374 -0.24609566 C97.33240571 0.0407576 98.96110226 0.84568801 101 2 C97.25151927 3.24949358 94.89966865 2.57536095 91 2 C85.8974191 1.83540062 81.04187553 2.13625657 75.98046875 2.78125 C74 3 74 3 71 3 C70.01 3.33 69.02 3.66 68 4 C67.01 3.34 66.02 2.68 65 2 C62.645752 2.588562 60.31029085 3.25740651 58 4 C55 4 55 4 51.6875 3.5 C48.38587669 3.05232226 45.32312558 2.92447442 42 3 C36.33333333 3 30.66666667 3 25 3 C24.01 3.33 23.02 3.66 22 4 C21.01 3.67 20.02 3.34 19 3 C14.66565179 2.63880432 11.13035822 3.74614125 7 5 C5.33753959 5.35371498 3.67225729 5.69595322 2 6 C2 5.34 2 4.68 2 4 C1.01 3.67 0.02 3.34 -1 3 C-0.67 2.01 -0.34 1.02 0 0 Z " fill="#2B84D0" transform="translate(293,182)"/>
<path d="M0 0 C0.99 0.495 0.99 0.495 2 1 C-13.21834414 12.65968192 -27.71220683 18.1365575 -47.0078125 18.16796875 C-47.73692841 18.17129715 -48.46604431 18.17462555 -49.21725464 18.17805481 C-50.74492774 18.18307729 -52.27261162 18.1854646 -53.80029297 18.18530273 C-56.12615959 18.1875011 -58.45155997 18.20573842 -60.77734375 18.22460938 C-62.27083173 18.22754202 -63.76432194 18.22952768 -65.2578125 18.23046875 C-65.94545685 18.23765427 -66.6331012 18.24483978 -67.34158325 18.25224304 C-71.59887276 18.23222855 -75.04011449 17.55114087 -79 16 C-75.88045872 14.44022936 -72.57040616 14.87895874 -69.1484375 14.90234375 C-68.37440582 14.9037587 -67.60037415 14.90517365 -66.80288696 14.90663147 C-64.32688558 14.91223597 -61.85097412 14.92478917 -59.375 14.9375 C-57.69791797 14.94251442 -56.02083453 14.94707743 -54.34375 14.95117188 C-50.22913194 14.96220685 -46.11458122 14.97947446 -42 15 C-41.67 14.34 -41.34 13.68 -41 13 C-38.69 13 -36.38 13 -34 13 C-33.79375 12.360625 -33.5875 11.72125 -33.375 11.0625 C-32 9 -32 9 -28.875 8.25 C-27.92625 8.1675 -26.9775 8.085 -26 8 C-26 8.66 -26 9.32 -26 10 C-24.68 10 -23.36 10 -22 10 C-22 9.34 -22 8.68 -22 8 C-21.14019531 8.04898437 -20.28039062 8.09796875 -19.39453125 8.1484375 C-15.64180773 7.98433682 -13.12485297 7.10610103 -9.6875 5.625 C-8.63949219 5.18414062 -7.59148437 4.74328125 -6.51171875 4.2890625 C-3.87886662 3.25069277 -3.87886662 3.25069277 -3 1 C-2.01 0.67 -1.02 0.34 0 0 Z " fill="#9ACBEB" transform="translate(425,312)"/>
<path d="M0 0 C13.1170917 0.06113421 26.23398316 0.13818466 39.35085773 0.23571491 C45.44116717 0.28049572 51.53140851 0.31973481 57.62182617 0.34643555 C63.49635331 0.37239159 69.37061947 0.41273922 75.24498558 0.46318626 C77.48929798 0.47990718 79.73365557 0.49138879 81.97802162 0.49761391 C85.11494107 0.5071982 88.25118493 0.53518948 91.38793945 0.56762695 C92.7883976 0.56547432 92.7883976 0.56547432 94.21714783 0.5632782 C95.07110138 0.57581635 95.92505493 0.58835449 96.80488586 0.60127258 C97.91795089 0.60818603 97.91795089 0.60818603 99.05350208 0.61523914 C101.50930695 1.10067382 102.41709882 2.11367344 104 4 C90.8829083 3.93886579 77.76601684 3.86181534 64.64914227 3.76428509 C58.55883283 3.71950428 52.46859149 3.68026519 46.37817383 3.65356445 C40.50364669 3.62760841 34.62938053 3.58726078 28.75501442 3.53681374 C26.51070202 3.52009282 24.26634443 3.50861121 22.02197838 3.50238609 C18.88505893 3.4928018 15.74881507 3.46481052 12.61206055 3.43237305 C11.67842178 3.43380814 10.74478302 3.43524323 9.78285217 3.4367218 C8.92889862 3.42418365 8.07494507 3.41164551 7.19511414 3.39872742 C6.45307078 3.39411845 5.71102743 3.38950949 4.94649792 3.38476086 C2.49069305 2.89932618 1.58290118 1.88632656 0 0 Z " fill="#C6DFF2" transform="translate(290,209)"/>
<path d="M0 0 C1.18529297 0.01353516 1.18529297 0.01353516 2.39453125 0.02734375 C3.28205078 0.04474609 3.28205078 0.04474609 4.1875 0.0625 C3.8575 1.7125 3.5275 3.3625 3.1875 5.0625 C2.53523438 5.11148437 1.88296875 5.16046875 1.2109375 5.2109375 C-3.74529853 5.63492229 -8.14269451 6.21915573 -12.8125 8.0625 C-13.3075 7.0725 -13.3075 7.0725 -13.8125 6.0625 C-17.58316461 5.89186937 -21.35405222 5.72674375 -25.125 5.5625 C-26.17751953 5.51480469 -27.23003906 5.46710938 -28.31445312 5.41796875 C-35.15225864 5.12341713 -41.96858461 5.00112724 -48.8125 5.0625 C-47.81201172 3.59228516 -47.81201172 3.59228516 -45.8125 2.0625 C-43.07765035 1.74306597 -40.5583579 1.59771412 -37.8203125 1.5859375 C-37.03735809 1.57035797 -36.25440369 1.55477844 -35.44772339 1.53872681 C-32.94432618 1.4912048 -30.44120569 1.46346507 -27.9375 1.4375 C-25.44113464 1.40090911 -22.94492236 1.36014765 -20.44869995 1.31484985 C-18.89615819 1.28781708 -17.34350596 1.26638302 -15.790802 1.25131226 C-10.43028839 1.17390768 -5.33481535 -0.07962411 0 0 Z " fill="#46A3E7" transform="translate(396.8125,296.9375)"/>
<path d="M0 0 C0.65897781 -0.00992981 1.31795563 -0.01985962 1.99690247 -0.03009033 C4.17750238 -0.05929996 6.35781077 -0.07293529 8.53857422 -0.08398438 C10.05972293 -0.09549536 11.58087161 -0.10701072 13.10202026 -0.11853027 C16.29475248 -0.13954428 19.48738415 -0.15123165 22.68017578 -0.15820312 C26.75239681 -0.16913608 30.82326783 -0.21710919 34.89506721 -0.27414703 C38.04029068 -0.31159044 41.18519621 -0.32182114 44.33062363 -0.32487488 C45.83044645 -0.33089246 47.33026606 -0.3468293 48.82986832 -0.37324524 C56.82438054 -0.50394915 63.25290832 -0.34276314 69.86203003 4.64221191 C73.315229 8.25411907 73.78302762 11.37228584 73.67138672 16.34960938 C73.40710816 18.9161608 72.61758384 21.02362139 71.46826172 23.32226562 C71.13826172 23.32226562 70.80826172 23.32226562 70.46826172 23.32226562 C70.52626953 22.44183594 70.58427734 21.56140625 70.64404297 20.65429688 C71.09028325 13.49949631 71.09028325 13.49949631 68.34326172 7.13476562 C65.41981488 5.29172306 62.81085301 4.17734712 59.46826172 3.32226562 C59.46826172 2.99226562 59.46826172 2.66226563 59.46826172 2.32226562 C36.69826172 2.32226562 13.92826172 2.32226562 -9.53173828 2.32226562 C-5.9394417 -0.07259877 -4.27336113 0.04895849 0 0 Z " fill="#5CA4D9" transform="translate(323.53173828125,239.677734375)"/>
<path d="M0 0 C21.45 0 42.9 0 65 0 C59.97080251 2.51459875 57.22854752 3.33638453 51.6875 2.5 C48.38587669 2.05232226 45.32312558 1.92447442 42 2 C36.33333333 2 30.66666667 2 25 2 C24.01 2.33 23.02 2.66 22 3 C21.01 2.67 20.02 2.34 19 2 C14.66565179 1.63880432 11.13035822 2.74614125 7 4 C5.33753959 4.35371498 3.67225729 4.69595322 2 5 C2 4.34 2 3.68 2 3 C1.01 2.67 0.02 2.34 -1 2 C-0.67 1.34 -0.34 0.68 0 0 Z " fill="#268AE1" transform="translate(293,183)"/>
<path d="M0 0 C0.33 0.66 0.66 1.32 1 2 C-3.04919706 12.70750019 -9.84499255 22.13374441 -19 29 C-19 27.68 -19 26.36 -19 25 C-18.01 25 -17.02 25 -16 25 C-16.66 24.67 -17.32 24.34 -18 24 C-18 23.34 -18 22.68 -18 22 C-17.01 21.67 -16.02 21.34 -15 21 C-14.67 20.34 -14.34 19.68 -14 19 C-13.34 19 -12.68 19 -12 19 C-12.33 17.35 -12.66 15.7 -13 14 C-12.071875 13.7215625 -12.071875 13.7215625 -11.125 13.4375 C-7.94397134 11.28562767 -7.80548053 8.62466237 -7 5 C-5.02 4.67 -3.04 4.34 -1 4 C-0.67 2.68 -0.34 1.36 0 0 Z " fill="#59A7DC" transform="translate(446,283)"/>
<path d="M0 0 C0.33 0 0.66 0 1 0 C0.99333817 1.06409088 0.98667633 2.12818176 0.97981262 3.22451782 C0.91896272 13.25902674 0.87400869 23.29349815 0.84456348 33.3281498 C0.82891644 38.48691124 0.80769556 43.64552358 0.77368164 48.80419922 C0.74105414 53.78384235 0.72313975 58.76334217 0.71536827 63.74308395 C0.70983087 65.64166901 0.69901765 67.54024634 0.68280983 69.43877029 C0.66099053 72.1007906 0.65803496 74.76222087 0.65942383 77.42431641 C0.648638 78.20690826 0.63785217 78.98950012 0.6267395 79.79580688 C0.65393152 84.6214441 1.47688146 87.75542506 4 92 C4.66666667 93.33333333 5.33333333 94.66666667 6 96 C2.81295689 94.66593815 1.30426811 93.57955377 -0.22119141 90.46508789 C-3.17232966 83.20222636 -2.5328919 75.26130649 -2.4609375 67.55859375 C-2.4585487 65.86426433 -2.45764868 64.16993222 -2.4581604 62.4756012 C-2.45504521 58.93774649 -2.43857838 55.4003007 -2.41162109 51.86254883 C-2.37761726 47.34472158 -2.36999415 42.82734177 -2.37151146 38.30940151 C-2.37096574 34.81508676 -2.35996665 31.32086833 -2.34550858 27.82658577 C-2.33917887 26.16134429 -2.33521072 24.496092 -2.33372116 22.83083916 C-2.32934851 20.49828659 -2.31176475 18.16619283 -2.29052734 15.83374023 C-2.29143372 15.15663498 -2.29234009 14.47952972 -2.29327393 13.78190613 C-2.2286485 8.88853286 -1.30888808 4.67968273 0 0 Z " fill="#F9FDFE" transform="translate(283,273)"/>
<path d="M0 0 C0.66 0.33 1.32 0.66 2 1 C-5.20446657 8.46176895 -16.59783854 8.29788884 -26.30947876 8.48768616 C-28.72715151 8.5217958 -31.14466136 8.54388078 -33.5625 8.5625 C-36.01905922 8.58635009 -38.47527146 8.61442106 -40.93162537 8.65428162 C-42.44734002 8.67851226 -43.96323935 8.69347345 -45.47914124 8.69789124 C-49.19424282 8.75339867 -50.82686079 8.88457386 -54 11 C-56.1875 10.625 -56.1875 10.625 -58 10 C-54.25335823 7.43186926 -51.5595108 6.57527611 -47.0390625 6.33203125 C-45.32251465 6.23462646 -45.32251465 6.23462646 -43.57128906 6.13525391 C-36.69346621 5.87477306 -29.81221275 5.716728 -22.9296875 5.65820312 C-14.50477552 5.4504788 -7.54485568 3.77242784 0 0 Z " fill="#E2F4FB" transform="translate(402,291)"/>
<path d="M0 0 C0.33 0 0.66 0 1 0 C4.73289928 16.03146921 3.40952146 31.54758436 -2 47 C-3.20006326 43.46144649 -2.78664205 40.87657801 -2.1015625 37.23828125 C-0.82349629 29.56236594 -0.55571187 21.95340452 -0.375 14.1875 C-0.33668245 12.8014115 -0.2976236 11.41534328 -0.2578125 10.02929688 C-0.16462855 6.68632253 -0.07881757 3.3433386 0 0 Z " fill="#9BC7E5" transform="translate(450,236)"/>
<path d="M0 0 C6.5268408 6.20049876 7.84216405 10.85290558 8.10546875 19.76171875 C8.07556648 26.01983604 7.63281355 33.96459603 3.390625 38.85546875 C2.93171875 39.23316406 2.4728125 39.61085938 2 40 C2.2165625 38.94425781 2.2165625 38.94425781 2.4375 37.8671875 C4.58606654 26.43800717 5.35005707 15.92141987 1 5 C0.62770641 3.34160126 0.2706431 1.67798725 0 0 Z " fill="#A1CEEC" transform="translate(417,232)"/>
<path d="M0 0 C0.99 0 1.98 0 3 0 C3.66 1.32 4.32 2.64 5 4 C4.01 4 3.02 4 2 4 C2 5.32 2 6.64 2 8 C0.35 8.33 -1.3 8.66 -3 9 C-3.33 9.99 -3.66 10.98 -4 12 C-6.31 12.33 -8.62 12.66 -11 13 C-10.855625 12.37351562 -10.71125 11.74703125 -10.5625 11.1015625 C-10.376875 10.28429687 -10.19125 9.46703125 -10 8.625 C-9.814375 7.81289063 -9.62875 7.00078125 -9.4375 6.1640625 C-8.93394761 4.04125049 -8.93394761 4.04125049 -9 2 C-8.01 1.67 -7.02 1.34 -6 1 C-4.875 6.75 -4.875 6.75 -6 9 C-4.4166747 7.7511573 -4.4166747 7.7511573 -3 6 C-3 4.68 -3 3.36 -3 2 C-2.01 2 -1.02 2 0 2 C0 1.34 0 0.68 0 0 Z " fill="#48A8EC" transform="translate(425,304)"/>
<path d="M0 0 C33.66 0.495 33.66 0.495 68 1 C68 1.33 68 1.66 68 2 C45.89 2.33 23.78 2.66 1 3 C1 3.66 1 4.32 1 5 C0.01 4.67 -0.98 4.34 -2 4 C-1.34 2.68 -0.68 1.36 0 0 Z " fill="#4E9EDA" transform="translate(318,267)"/>
<path d="M0 0 C0.66 0.33 1.32 0.66 2 1 C0.824375 1.3403125 0.824375 1.3403125 -0.375 1.6875 C-3.23222853 2.74935407 -3.23222853 2.74935407 -4 5.5625 C-4.33 6.366875 -4.66 7.17125 -5 8 C-7.625 8.8125 -7.625 8.8125 -10 9 C-10.66 10.98 -11.32 12.96 -12 15 C-12.78375 15.0825 -13.5675 15.165 -14.375 15.25 C-17.08342864 15.72032588 -17.08342864 15.72032588 -18.1875 17.75 C-18.5896875 18.86375 -18.5896875 18.86375 -19 20 C-19.37125 20.9075 -19.7425 21.815 -20.125 22.75 C-20.41375 23.4925 -20.7025 24.235 -21 25 C-21.66 24.34 -22.32 23.68 -23 23 C-22.05065487 21.32819726 -21.09026687 19.66266064 -20.125 18 C-19.59132813 17.071875 -19.05765625 16.14375 -18.5078125 15.1875 C-18.01023437 14.465625 -17.51265625 13.74375 -17 13 C-16.34 13 -15.68 13 -15 13 C-14.76023437 12.41476563 -14.52046875 11.82953125 -14.2734375 11.2265625 C-12.74692911 8.55751409 -11.07349017 7.22153578 -8.625 5.375 C-7.46871094 4.48941406 -7.46871094 4.48941406 -6.2890625 3.5859375 C-4.22430661 2.15540697 -2.33530794 0.9241857 0 0 Z " fill="#B2D9F0" transform="translate(308,242)"/>
<path d="M0 0 C7.53005089 6.64416255 12.73848949 16.23651326 15 26 C14.59765625 28.3203125 14.59765625 28.3203125 14 30 C12.12920903 27.19381354 11.50290986 25.49910172 10.6875 22.3125 C8.89505671 16.09809 6.47847847 10.65231898 1 7 C0.3125 3.375 0.3125 3.375 0 0 Z " fill="#B7DAEF" transform="translate(435,206)"/>
<path d="M0 0 C-0.8125 1.9375 -0.8125 1.9375 -2 4 C-2.99 4.33 -3.98 4.66 -5 5 C-6.01805604 8.05416813 -6.13375515 10.17936961 -6.125 13.375 C-6.12757813 14.31085938 -6.13015625 15.24671875 -6.1328125 16.2109375 C-6.00441441 18.90729747 -5.60188709 21.37271509 -5 24 C-8.46717319 20.84802437 -9.80778451 18.42788647 -10.4375 13.75 C-9.87681905 8.9441633 -8.03888384 5.72370274 -5 2 C-2 0 -2 0 0 0 Z " fill="#5195CE" transform="translate(293,182)"/>
<path d="M0 0 C-3.64796131 2.46773853 -6.60051471 3.60004679 -11 4 C-11.495 3.505 -11.495 3.505 -12 3 C-14.44608998 2.84019563 -16.86731058 2.74070553 -19.31640625 2.68359375 C-20.41298805 2.6524221 -20.41298805 2.6524221 -21.53172302 2.62062073 C-23.87521656 2.55504976 -26.21882539 2.49620568 -28.5625 2.4375 C-30.14779855 2.39432192 -31.73308529 2.35070787 -33.31835938 2.30664062 C-37.21212037 2.1993608 -41.10599772 2.0981151 -45 2 C-45 1.67 -45 1.34 -45 1 C-43.93563721 0.97494385 -42.87127441 0.9498877 -41.7746582 0.92407227 C-37.81425571 0.8296833 -33.85401577 0.72954025 -29.89379883 0.62768555 C-28.18192353 0.58445555 -26.47000843 0.54277235 -24.75805664 0.50268555 C-22.29300966 0.44469286 -19.82816082 0.38108303 -17.36328125 0.31640625 C-16.60163162 0.29969376 -15.83998199 0.28298126 -15.05525208 0.26576233 C-0.41847949 -0.13949316 -0.41847949 -0.13949316 0 0 Z " fill="#6DACD6" transform="translate(396,298)"/>
<path d="M0 0 C3.67108756 1.98838843 6.93529532 2.02804491 11.0090332 2.06323242 C11.77882004 2.08118362 12.54860687 2.09913483 13.34172058 2.11763 C15.78675959 2.17156754 18.23160527 2.20557441 20.67700195 2.23901367 C22.34044022 2.27220149 24.00385302 2.30669251 25.66723633 2.3425293 C29.73285166 2.42728404 33.79841131 2.4941734 37.86450195 2.55151367 C37.86450195 2.88151367 37.86450195 3.21151367 37.86450195 3.55151367 C32.20451172 3.57618834 26.54455263 3.59436156 20.88452148 3.60644531 C18.95808365 3.61148154 17.03164964 3.61831079 15.10522461 3.62695312 C12.34007828 3.63904975 9.57498237 3.644749 6.80981445 3.64916992 C5.51287155 3.65691185 5.51287155 3.65691185 4.18972778 3.66481018 C-1.90775463 3.66538538 -1.90775463 3.66538538 -4.13549805 2.55151367 C-4.13549805 1.89151367 -4.13549805 1.23151367 -4.13549805 0.55151367 C-4.79549805 0.22151367 -5.45549805 -0.10848633 -6.13549805 -0.44848633 C-3.35158891 -1.58267153 -2.55423119 -1.73250871 0 0 Z " fill="#5AA4D8" transform="translate(350.135498046875,324.448486328125)"/>
<path d="M0 0 C1.32 0 2.64 0 4 0 C3.75 1.875 3.75 1.875 3 4 C0.9375 5.25 0.9375 5.25 -1 6 C-0.67 7.32 -0.34 8.64 0 10 C-0.99 9.67 -1.98 9.34 -3 9 C-3.99 9.33 -4.98 9.66 -6 10 C-6.66 9.67 -7.32 9.34 -8 9 C-7.3125 6.625 -7.3125 6.625 -6 4 C-3.4375 2.8125 -3.4375 2.8125 -1 2 C-0.67 1.34 -0.34 0.68 0 0 Z " fill="#3897DF" transform="translate(304,247)"/>
<path d="M0 0 C-0.79664063 0.31130859 -0.79664063 0.31130859 -1.609375 0.62890625 C-7.28999091 3.10640114 -9.64830693 5.21875453 -12 11 C-13.05587281 17.45255609 -10.54762756 20.9402689 -7 26 C-6.67 26.66 -6.34 27.32 -6 28 C-10.55727842 26.27137715 -11.90834857 23.18330285 -14 19 C-14.41200591 14.12299978 -14.61186137 9.27395497 -12 5 C-5.29821506 -1.58946452 -5.29821506 -1.58946452 0 0 Z " fill="#D9EFF9" transform="translate(296,181)"/>
<path d="M0 0 C0.83637497 0.00424484 1.67274994 0.00848969 2.5344696 0.01286316 C5.1938864 0.02959511 7.85253275 0.06723649 10.51171875 0.10546875 C12.31965048 0.12052271 14.12759414 0.13420987 15.93554688 0.14648438 C20.35706564 0.17948059 24.77801177 0.23122447 29.19921875 0.29296875 C29.19921875 0.62296875 29.19921875 0.95296875 29.19921875 1.29296875 C28.12438232 1.31278809 27.0495459 1.33260742 25.94213867 1.35302734 C21.95557161 1.42908133 17.96936965 1.51779884 13.9831543 1.61035156 C12.25764167 1.6486422 10.53204919 1.68349496 8.80639648 1.71484375 C6.3263698 1.76049279 3.84689284 1.81848656 1.3671875 1.87890625 C0.2092292 1.89623306 0.2092292 1.89623306 -0.97212219 1.91390991 C-4.75324799 2.01818148 -6.5809696 2.14642765 -9.80078125 4.29296875 C-11.98828125 3.91796875 -11.98828125 3.91796875 -13.80078125 3.29296875 C-9.23499781 -0.17638642 -5.48678989 -0.10548418 0 0 Z " fill="#C4E7F5" transform="translate(357.80078125,297.70703125)"/>
<path d="M0 0 C0.33 0 0.66 0 1 0 C1.33 3.96 1.66 7.92 2 12 C2.99 12.33 3.98 12.66 5 13 C5 14.65 5 16.3 5 18 C5.66 18 6.32 18 7 18 C7 18.66 7 19.32 7 20 C2.73727671 18.47759883 1.01968966 15.96724754 -1 12 C-1.5298986 7.74629346 -1.35609289 4.06827866 0 0 Z " fill="#C1E1F3" transform="translate(339,307)"/>
<path d="M0 0 C0.33 0.99 0.66 1.98 1 3 C-1.56408809 7.66197835 -4.78257985 9.14023771 -9.6796875 10.5625 C-13.05162507 11.19828621 -15.71565169 10.93838523 -19 10 C-19.66 9.01 -20.32 8.02 -21 7 C-19.98679687 7.08121094 -18.97359375 7.16242188 -17.9296875 7.24609375 C-10.46340652 7.89972454 -10.46340652 7.89972454 -3.66796875 5.44140625 C-2.21862301 3.68879109 -1.03649525 2.02142356 0 0 Z " fill="#C6E3F3" transform="translate(310,362)"/>
<path d="M0 0 C4.5503959 3.91839647 7.24859663 8.2112707 9 14 C8.67 14.66 8.34 15.32 8 16 C5.8614515 13.8614515 5.57344937 12.86724686 5 10 C3.68 10.33 2.36 10.66 1 11 C0.67 9.35 0.34 7.7 0 6 C0.66 6 1.32 6 2 6 C1.34 4.02 0.68 2.04 0 0 Z " fill="#3D8ED4" transform="translate(438,214)"/>
<path d="M0 0 C0.33 0 0.66 0 1 0 C1.01981934 0.55461914 1.03963867 1.10923828 1.06005859 1.68066406 C1.15557651 4.20423693 1.26514567 6.72701224 1.375 9.25 C1.4059375 10.12269531 1.436875 10.99539063 1.46875 11.89453125 C1.50742187 12.73886719 1.54609375 13.58320313 1.5859375 14.453125 C1.6173584 15.22817383 1.6487793 16.00322266 1.68115234 16.80175781 C1.88816106 19.06175997 1.88816106 19.06175997 3.08056641 21.11230469 C4 23 4 23 3.125 25.75 C2.75375 26.4925 2.3825 27.235 2 28 C0 26 0 26 -0.22705078 23.38623047 C-0.21657715 22.30744629 -0.20610352 21.22866211 -0.1953125 20.1171875 C-0.18886719 18.95058594 -0.18242187 17.78398437 -0.17578125 16.58203125 C-0.15902344 15.35871094 -0.14226562 14.13539063 -0.125 12.875 C-0.11597656 11.64394531 -0.10695313 10.41289062 -0.09765625 9.14453125 C-0.07402548 6.09616185 -0.04108054 3.04817618 0 0 Z " fill="#50ADE7" transform="translate(285,335)"/>
<path d="M0 0 C0.33 0.99 0.66 1.98 1 3 C-0.9375 3.5625 -0.9375 3.5625 -3 4 C-3.33 3.67 -3.66 3.34 -4 3 C-5.66617115 2.95936168 -7.33388095 2.957279 -9 3 C-9.33 3.66 -9.66 4.32 -10 5 C-11.65 5 -13.3 5 -15 5 C-15 4.34 -15 3.68 -15 3 C-10.48779109 -0.91058106 -5.62104043 -0.29469532 0 0 Z " fill="#529DD7" transform="translate(320,242)"/>
<path d="M0 0 C1.32 0.66 2.64 1.32 4 2 C4 2.66 4 3.32 4 4 C4.99 4 5.98 4 7 4 C6.67 4.99 6.34 5.98 6 7 C3.33333333 7 0.66666667 7 -2 7 C-2.33 6.01 -2.66 5.02 -3 4 C-1.5625 1.8125 -1.5625 1.8125 0 0 Z " fill="#308AD9" transform="translate(424,199)"/>
<path d="M0 0 C0.33 0 0.66 0 1 0 C0.88490339 1.41750563 0.75746342 2.83401169 0.625 4.25 C0.55539062 5.03890625 0.48578125 5.8278125 0.4140625 6.640625 C-0.01507113 9.085877 -0.78600638 10.84836903 -2 13 C-2.99 13 -3.98 13 -5 13 C-5.125 9.625 -5.125 9.625 -5 6 C-4.34 5.34 -3.68 4.68 -3 4 C-2.01 4 -1.02 4 0 4 C0 2.68 0 1.36 0 0 Z " fill="#52A1DA" transform="translate(447,274)"/>
<path d="M0 0 C0.7890625 1.58203125 0.7890625 1.58203125 1 4 C-0.45429032 6.4307424 -1.87729126 8.48947633 -3.625 10.6875 C-4.28435547 11.57791992 -4.28435547 11.57791992 -4.95703125 12.48632812 C-7.07860451 15.21450957 -8.49692343 16.84131607 -11.8359375 17.89453125 C-12.55007813 17.92933594 -13.26421875 17.96414063 -14 18 C-13.319375 17.360625 -12.63875 16.72125 -11.9375 16.0625 C-7.23905123 11.36405123 -2.78911717 6.05911662 0 0 Z " fill="#C5E5F6" transform="translate(418,273)"/>
<path d="M0 0 C3.14624993 -0.26218749 4.61837017 -0.24754367 7.3125 1.5 C8.1478125 2.2425 8.1478125 2.2425 9 3 C8.67 4.32 8.34 5.64 8 7 C7.01 6.67 6.02 6.34 5 6 C4.67 5.34 4.34 4.68 4 4 C2.35 4 0.7 4 -1 4 C-0.67 2.68 -0.34 1.36 0 0 Z " fill="#3298E7" transform="translate(311,244)"/>
<path d="M0 0 C4.41151871 1.34796405 6.38808519 3.22723417 9 7 C9 7.33 9 7.66 9 8 C6.125 8.125 6.125 8.125 3 8 C0.4345406 5.4345406 0.45953913 3.52313332 0 0 Z " fill="#3A8ED5" transform="translate(287,201)"/>
<path d="M0 0 C3.16814294 3.0303976 3.96305733 4.24883247 4.1875 8.8125 C4.15598345 12.27301752 3.56594316 14.86811369 2 18 C1.67 18 1.34 18 1 18 C1.01740234 16.67935547 1.01740234 16.67935547 1.03515625 15.33203125 C1.04417969 14.17058594 1.05320312 13.00914062 1.0625 11.8125 C1.07410156 10.66394531 1.08570313 9.51539063 1.09765625 8.33203125 C1.01192832 5.40699414 0.67849023 2.83683709 0 0 Z " fill="#B6DAF0" transform="translate(393,245)"/>
<path d="M0 0 C-6.81731788 3.74139138 -13.4291181 6.22962267 -21 8 C-21.33 7.34 -21.66 6.68 -22 6 C-19.47225897 4.48335538 -17.72116218 3.96782641 -14.75 3.625 C-10.79647409 2.96607902 -8.21814111 1.72652184 -4.796875 -0.2578125 C-3 -1 -3 -1 0 0 Z " fill="#C9E6F6" transform="translate(416,321)"/>
<path d="M0 0 C0.33 0.66 0.66 1.32 1 2 C-0.07421875 4.6796875 -0.07421875 4.6796875 -1.6875 7.875 C-2.20699219 8.92429687 -2.72648437 9.97359375 -3.26171875 11.0546875 C-4.91857616 13.86203691 -6.59137155 15.82751159 -9 18 C-8.06825785 15.60409161 -7.14444936 13.27190467 -5.9375 11 C-4.85708359 8.69511165 -4.41712919 6.50277511 -4 4 C-3.01 4 -2.02 4 -1 4 C-0.67 2.68 -0.34 1.36 0 0 Z " fill="#B6DBF1" transform="translate(446,283)"/>
<path d="M0 0 C2.97 0.495 2.97 0.495 6 1 C6.33 2.65 6.66 4.3 7 6 C6.38125 5.814375 5.7625 5.62875 5.125 5.4375 C2.95839822 4.76313824 2.95839822 4.76313824 1 6 C0.67 4.02 0.34 2.04 0 0 Z " fill="#3298E6" transform="translate(385,244)"/>
<path d="M0 0 C13.86 0.495 13.86 0.495 28 1 C28 1.33 28 1.66 28 2 C21.46680538 2.590095 14.93426475 3.08962678 8.375 3.25 C6.93253906 3.28867188 6.93253906 3.28867188 5.4609375 3.328125 C3 3 3 3 0 0 Z " fill="#A9D1EE" transform="translate(290,209)"/>
<path d="M0 0 C-1.75 4.875 -1.75 4.875 -4 6 C-4.46651207 8.12576782 -4.46651207 8.12576782 -4.625 10.5625 C-4.69976562 11.38878906 -4.77453125 12.21507812 -4.8515625 13.06640625 C-4.90054687 13.70449219 -4.94953125 14.34257812 -5 15 C-5.33 15 -5.66 15 -6 15 C-6.08107583 13.06318839 -6.13922475 11.1254066 -6.1875 9.1875 C-6.22230469 8.10855469 -6.25710938 7.02960938 -6.29296875 5.91796875 C-6 3 -6 3 -4.67578125 1.11328125 C-3 0 -3 0 0 0 Z " fill="#85BBDE" transform="translate(346,302)"/>
<path d="M0 0 C0.66 0.33 1.32 0.66 2 1 C1.21625 1.226875 0.4325 1.45375 -0.375 1.6875 C-3.23222853 2.74935407 -3.23222853 2.74935407 -4 5.5625 C-4.33 6.366875 -4.66 7.17125 -5 8 C-7.625 8.8125 -7.625 8.8125 -10 9 C-7.29376987 4.31614016 -5.12676141 1.89467269 0 0 Z " fill="#98C7E8" transform="translate(308,242)"/>
<path d="M0 0 C3.53586014 3.17320782 5.58578031 5.16743695 6 10 C3.5625 8.9375 3.5625 8.9375 1 7 C0.1875 3.3125 0.1875 3.3125 0 0 Z " fill="#8ABDE2" transform="translate(435,206)"/>
<path d="M0 0 C4.29238623 1.65091778 6.8793915 4.73754566 10 8 C9.67 8.66 9.34 9.32 9 10 C3.57716702 7.95137421 3.57716702 7.95137421 1.93359375 5.2421875 C1.21380202 3.52442366 0.5989392 1.76354319 0 0 Z " fill="#A8CEEA" transform="translate(425,196)"/>
<path d="M0 0 C0.99 0 1.98 0 3 0 C3 0.99 3 1.98 3 3 C2.34 3 1.68 3 1 3 C1 4.32 1 5.64 1 7 C-0.32 6.67 -1.64 6.34 -3 6 C-3 4.68 -3 3.36 -3 2 C-2.01 2 -1.02 2 0 2 C0 1.34 0 0.68 0 0 Z " fill="#45A7E9" transform="translate(425,304)"/>
<path d="M0 0 C-0.25 1.875 -0.25 1.875 -1 4 C-3.58152302 5.72101535 -4.84918025 6 -8 6 C-8 4 -8 4 -6.25 1.875 C-4 0 -4 0 0 0 Z " fill="#329AE7" transform="translate(308,247)"/>
<path d="M0 0 C5.61 0 11.22 0 17 0 C13.16399713 1.91800144 12.02507754 2.20641423 8 2 C4.94729537 1.84188612 4.94729537 1.84188612 2 3 C1.34 2.01 0.68 1.02 0 0 Z " fill="#258BE1" transform="translate(359,183)"/>
<path d="M0 0 C0 3 0 3 -1.53125 4.82421875 C-2.1809375 5.43910156 -2.830625 6.05398438 -3.5 6.6875 C-4.1496875 7.31011719 -4.799375 7.93273437 -5.46875 8.57421875 C-5.9740625 9.04472656 -6.479375 9.51523437 -7 10 C-7.33 8.68 -7.66 7.36 -8 6 C-7.01 6 -6.02 6 -5 6 C-5.66 5.67 -6.32 5.34 -7 5 C-7 4.34 -7 3.68 -7 3 C-6.21625 2.87625 -5.4325 2.7525 -4.625 2.625 C-1.85942178 2.20882007 -1.85942178 2.20882007 0 0 Z " fill="#ACD3ED" transform="translate(435,302)"/>
<path d="M0 0 C4.87088753 4.64948355 4.87088753 4.64948355 5.1953125 8.04296875 C5.09765625 11.02148438 5.09765625 11.02148438 5 14 C4 12 4 12 3 10 C2.46375 9.01 1.9275 8.02 1.375 7 C0 4 0 4 0 0 Z " fill="#C9E4F4" transform="translate(417,232)"/>
<path d="M0 0 C-3.66291938 2.47785723 -6.6109185 3.48964169 -11 4 C-11.33 3.34 -11.66 2.68 -12 2 C-11.01 2 -10.02 2 -9 2 C-9 1.34 -9 0.68 -9 0 C-5.62182575 -0.84454356 -3.32534757 -1.10844919 0 0 Z " fill="#59AADC" transform="translate(396,298)"/>
<path d="M0 0 C0.66 0.33 1.32 0.66 2 1 C1.67 2.32 1.34 3.64 1 5 C-3.455 5.495 -3.455 5.495 -8 6 C-5.33333333 4 -2.66666667 2 0 0 Z " fill="#5FAADB" transform="translate(404,291)"/>
<path d="M0 0 C1.48828125 1.11328125 1.48828125 1.11328125 3 3 C3.29296875 5.91796875 3.29296875 5.91796875 3.1875 9.1875 C3.16042969 10.27417969 3.13335937 11.36085937 3.10546875 12.48046875 C3.07066406 13.31191406 3.03585937 14.14335937 3 15 C2.67 15 2.34 15 2 15 C2 12.36 2 9.72 2 7 C1.34 7 0.68 7 0 7 C0 4.69 0 2.38 0 0 Z " fill="#4C97D2" transform="translate(447,233)"/>
<path d="M0 0 C0.33 0.66 0.66 1.32 1 2 C1.66 2 2.32 2 3 2 C3.66 3.98 4.32 5.96 5 8 C4.34 8 3.68 8 3 8 C2.67 6.68 2.34 5.36 2 4 C0.35 4.33 -1.3 4.66 -3 5 C-3 4.34 -3 3.68 -3 3 C-3.66 2.67 -4.32 2.34 -5 2 C-3.35 1.34 -1.7 0.68 0 0 Z " fill="#388ED5" transform="translate(404,211)"/>
<path d="M0 0 C0.33 0.66 0.66 1.32 1 2 C0.01 2 -0.98 2 -2 2 C-2 3.32 -2 4.64 -2 6 C-3.65 6.33 -5.3 6.66 -7 7 C-7.33 7.99 -7.66 8.98 -8 10 C-8.66 10 -9.32 10 -10 10 C-9.3125 8.0625 -9.3125 8.0625 -8 6 C-5.375 5.25 -5.375 5.25 -3 5 C-3 3.68 -3 2.36 -3 1 C-2.01 0.67 -1.02 0.34 0 0 Z " fill="#60A6D8" transform="translate(429,306)"/>
<path d="M0 0 C3.09305422 0.60903059 5.19639762 1.59868803 7.75 3.4375 C8.36359375 3.86933594 8.9771875 4.30117187 9.609375 4.74609375 C10.29773438 5.36677734 10.29773438 5.36677734 11 6 C11 6.66 11 7.32 11 8 C7.6885981 7.42906864 6.24945577 6.45395174 4 4 C3.34 3.67 2.68 3.34 2 3 C2 2.34 2 1.68 2 1 C1.34 0.67 0.68 0.34 0 0 Z " fill="#478DC9" transform="translate(416,192)"/>
<path d="M0 0 C0.33 0 0.66 0 1 0 C0.5547115 5.27315333 -0.08373163 10.01770224 -2 15 C-3.37432457 11.18243176 -2.67975039 7.92744671 -2 4 C-1.34 4 -0.68 4 0 4 C0 2.68 0 1.36 0 0 Z " fill="#B7DAEF" transform="translate(450,268)"/>
<path d="M0 0 C4.12751449 0.60698743 7.3321148 2.03810791 11 4 C11 4.66 11 5.32 11 6 C10.01 6 9.02 6 8 6 C8 5.34 8 4.68 8 4 C5.69 3.67 3.38 3.34 1 3 C0.67 2.01 0.34 1.02 0 0 Z " fill="#428BC9" transform="translate(403,185)"/>
<path d="M0 0 C1.11375 1.0209375 1.11375 1.0209375 2.25 2.0625 C-2.5 3.1875 -2.5 3.1875 -4.75 2.0625 C-4.75 1.4025 -4.75 0.7425 -4.75 0.0625 C-5.41 -0.2675 -6.07 -0.5975 -6.75 -0.9375 C-3.54207028 -2.36324654 -2.97059746 -2.09292094 0 0 Z " fill="#65ADDF" transform="translate(350.75,324.9375)"/>
<path d="M0 0 C1.1875 1.625 1.1875 1.625 2 4 C0.625 7.25 0.625 7.25 -1 10 C-1.99 9.67 -2.98 9.34 -4 9 C-3.71125 8.443125 -3.4225 7.88625 -3.125 7.3125 C-1.9586747 4.91505355 -0.9660119 2.48403061 0 0 Z " fill="#53A5DF" transform="translate(347,314)"/>
<path d="M0 0 C0.33 0.99 0.66 1.98 1 3 C-0.9628843 6.1708131 -2.12536 7.74158364 -5.75 8.8125 C-6.4925 8.874375 -7.235 8.93625 -8 9 C-6.8553125 7.88625 -6.8553125 7.88625 -5.6875 6.75 C-3.5606298 4.5736677 -1.7440044 2.47832204 0 0 Z " fill="#D2EDF9" transform="translate(310,362)"/>
<path d="M0 0 C2.64 0 5.28 0 8 0 C8.33 0.99 8.66 1.98 9 3 C7.3125 3.75 7.3125 3.75 5 4 C2.25 2.0625 2.25 2.0625 0 0 Z " fill="#4394D1" transform="translate(312,242)"/>
<path d="M0 0 C1.53445094 3.06890187 0.54984289 5.70094266 0 9 C-0.99 9.33 -1.98 9.66 -3 10 C-2.49287967 6.28111761 -1.88391785 3.26545761 0 0 Z " fill="#60A7D9" transform="translate(289,261)"/>
<path d="M0 0 C3.82097239 0.53069061 6.06171403 1.49701566 9 4 C8.67 4.66 8.34 5.32 8 6 C3.545 4.02 3.545 4.02 -1 2 C-0.67 1.34 -0.34 0.68 0 0 Z " fill="#4F98D0" transform="translate(384,241)"/>
<path d="M0 0 C0.66 0 1.32 0 2 0 C2.33 0.99 2.66 1.98 3 3 C1.5625 5.1875 1.5625 5.1875 0 7 C-0.99 5.35 -1.98 3.7 -3 2 C-2.34 2 -1.68 2 -1 2 C-0.67 1.34 -0.34 0.68 0 0 Z " fill="#368FD6" transform="translate(418,224)"/>
<path d="M0 0 C1.98 0.66 3.96 1.32 6 2 C6.33 3.98 6.66 5.96 7 8 C6.34 8 5.68 8 5 8 C4.731875 7.38125 4.46375 6.7625 4.1875 6.125 C3.04443152 3.7004767 3.04443152 3.7004767 0 2 C0 1.34 0 0.68 0 0 Z " fill="#B3D6ED" transform="translate(407,220)"/>
<path d="M0 0 C0.99 0.66 1.98 1.32 3 2 C0.375 5.875 0.375 5.875 -3 7 C-2.38722388 4.03824877 -1.74627478 2.61941217 0 0 Z " fill="#278CE2" transform="translate(424,199)"/>
<path d="M0 0 C0 0.66 0 1.32 0 2 C-3.3 2 -6.6 2 -10 2 C-10 1.34 -10 0.68 -10 0 C-6.7169902 -1.6415049 -3.57454967 -0.51888624 0 0 Z " fill="#2A89DE" transform="translate(409,188)"/>
<path d="M0 0 C-2.97180943 1.89865603 -5.51460083 3.35455571 -9 4 C-8 1 -8 1 -5.625 -0.25 C-3 -1 -3 -1 0 0 Z " fill="#69ADDD" transform="translate(418,318)"/>
<path d="M0 0 C2 2 2 2 2 6 C0.68 5.67 -0.64 5.34 -2 5 C-2 3.68 -2 2.36 -2 1 C-1.34 0.67 -0.68 0.34 0 0 Z " fill="#4FA5E1" transform="translate(418,305)"/>
<path d="M0 0 C1.98 0.66 3.96 1.32 6 2 C6.33 4.31 6.66 6.62 7 9 C4.03595495 6.19195732 1.55500981 3.81684226 0 0 Z " fill="#7BB2DB" transform="translate(414,228)"/>
<path d="M0 0 C0.99 0 1.98 0 3 0 C3 0.66 3 1.32 3 2 C3.66 2 4.32 2 5 2 C5 2.66 5 3.32 5 4 C5.99 4.33 6.98 4.66 8 5 C7.01 5.495 7.01 5.495 6 6 C4.0546875 5.22265625 4.0546875 5.22265625 1.875 4.0625 C1.15054687 3.68222656 0.42609375 3.30195313 -0.3203125 2.91015625 C-0.87460937 2.60980469 -1.42890625 2.30945313 -2 2 C-1.34 1.34 -0.68 0.68 0 0 Z " fill="#B3D4EB" transform="translate(396,212)"/>
<path d="M0 0 C2.1723491 3.25852365 4.07119658 6.59244728 6 10 C2.83884224 8.63016497 2.0072908 8.0109362 0 5 C-0.125 2.3125 -0.125 2.3125 0 0 Z " fill="#D6EEF9" transform="translate(283,359)"/>
<path d="M0 0 C-0.598125 0.28875 -1.19625 0.5775 -1.8125 0.875 C-4.19327792 2.04742026 -4.19327792 2.04742026 -7 4 C-9.1875 3.625 -9.1875 3.625 -11 3 C-7.16674383 0.29417212 -4.67461851 -0.32613618 0 0 Z " fill="#B9DCEE" transform="translate(355,298)"/>
<path d="M0 0 C2.475 0.99 2.475 0.99 5 2 C3.68 3.32 2.36 4.64 1 6 C1 5.01 1 4.02 1 3 C0.34 2.67 -0.32 2.34 -1 2 C-0.67 1.34 -0.34 0.68 0 0 Z " fill="#2A8CE3" transform="translate(418,195)"/>
</svg>
